#!OML:ASF I:\golf\golf\golf 2\Subject 1\2002-09-07\Subject1.ASF
:FULLY-SPECIFIED
:DEGREES
319
root -5.29966 17.9613 -3.58155 -166.539 -5.67421 -174.842
lowerback -10.592 17.0881 14.2718
upperback -15.5128 19.2283 -0.161215
thorax -6.78668 7.07304 -5.61467
lowerneck -8.40088 -19.2478 -3.01515
upperneck 6.67593 -25.7597 1.81856
head 4.31054 -12.7537 -0.680418
rclavicle 1.74931e-014 3.18055e-015
rhumerus 112.079 25.8261 -48.9299
rradius 73.725
rwrist 7.63906
rhand -45.4431 36.6418
rfingers 7.12502
rthumb -18.21 7.47424
lclavicle 1.74931e-014 3.18055e-015
lhumerus 70.5237 28.1848 65.5844
lradius 86.1696
lwrist 17.8216
lhand -30.2798 12.0077
lfingers 7.12502
lthumb -183.588 221.957
rfemur 20.0245 -9.67446 21.661
rtibia 5.93941
rfoot 36.6687 -21.0717
rtoes 13.0733
lfemur -30.4775 -22.2051 -11.173
ltibia 29.117
lfoot 38.3845 -45.221
ltoes 54.2133
320
root -5.30083 17.9619 -3.57572 -166.567 -5.57969 -174.811
lowerback -10.5616 17.0061 14.2931
upperback -15.4 19.1348 -0.0505456
thorax -6.72122 7.04501 -5.52649
lowerneck -8.6695 -19.1686 -2.96197
upperneck 6.68714 -25.6356 1.7652
head 4.34625 -12.6866 -0.72181
rclavicle 2.50469e-014 1.03368e-014
rhumerus 111.984 26.0519 -48.8502
rradius 73.5368
rwrist 7.63736
rhand -45.8588 36.3769
rfingers 7.12502
rthumb -18.6099 7.24708
lclavicle 2.50469e-014 1.03368e-014
lhumerus 70.2282 28.3104 65.0597
lradius 85.7886
lwrist 17.6908
lhand -30.0556 12.2406
lfingers 7.12502
lthumb -183.371 222.194
rfemur 19.9987 -9.46914 21.7922
rtibia 5.99374
rfoot 36.3054 -22.053
rtoes 14.8649
lfemur -30.3995 -22.1392 -11.165
ltibia 29.0165
lfoot 38.1723 -45.5303
ltoes 54.1305
321
root -5.30152 17.9651 -3.5688 -166.549 -5.44736 -174.855
lowerback -10.5286 16.9084 14.2337
upperback -15.3201 19.0246 0.0223442
thorax -6.70559 7.00753 -5.45038
lowerneck -8.87639 -19.0465 -2.84961
upperneck 6.73071 -25.4754 1.74688
head 4.3789 -12.6017 -0.751966
rclavicle -1.27222e-014 -3.33958e-014
rhumerus 112.693 29.449 -48.6109
rradius 72.081
rwrist 10.6982
rhand -45.7116 36.5918
rfingers 7.12502
rthumb -18.4683 7.44854
lclavicle -1.27222e-014 -3.33958e-014
lhumerus 69.9221 28.3663 64.5289
lradius 85.3824
lwrist 17.5167
lhand -29.778 12.3303
lfingers 7.12502
lthumb -183.103 222.287
rfemur 19.8744 -9.23925 21.8296
rtibia 6.14435
rfoot 36.0188 -22.7349
rtoes 15.9811
lfemur -30.3421 -22.0383 -11.2365
ltibia 28.8839
lfoot 38.0034 -45.7778
ltoes 53.9179
322
root -5.30407 17.9674 -3.56045 -166.484 -5.25762 -174.969
lowerback -10.4892 16.8427 14.1393
upperback -15.3 18.9535 0.0385476
thorax -6.74477 6.97894 -5.41658
lowerneck -8.88397 -18.9247 -2.68282
upperneck 6.72911 -25.328 1.70274
head 4.34592 -12.5294 -0.769173
rclavicle -1.92821e-013 -1.65389e-013
rhumerus 112.389 29.1409 -48.8945
rradius 71.969
rwrist 9.9261
rhand -45.576 36.2417
rfingers 7.12502
rthumb -18.3378 7.08604
lclavicle -1.92821e-013 -1.65389e-013
lhumerus 69.6124 28.3234 64.017
lradius 84.9272
lwrist 17.5198
lhand -29.5755 12.2796
lfingers 7.12502
lthumb -182.907 222.239
rfemur 19.6633 -8.96081 21.7649
rtibia 6.34379
rfoot 35.9077 -23.2643
rtoes 16.1364
lfemur -30.3077 -21.9984 -11.3517
ltibia 28.7075
lfoot 37.9064 -45.6427
ltoes 53.9907
323
root -5.30649 17.9682 -3.54991 -166.399 -5.07217 -174.949
lowerback -10.4696 16.7918 14.1769
upperback -15.2908 18.8778 0.0972563
thorax -6.76744 6.93221 -5.39169
lowerneck -8.99877 -18.8236 -2.54801
upperneck 6.88144 -25.1961 1.55433
head 4.37887 -12.4656 -0.83731
rclavicle 1.4551e-013 1.23246e-013
rhumerus 112.009 28.8112 -49.0822
rradius 71.8656
rwrist 9.08445
rhand -45.425 36.0572
rfingers 7.12502
rthumb -18.1926 6.88795
lclavicle 1.4551e-013 1.23246e-013
lhumerus 69.2136 28.2608 63.4686
lradius 84.4918
lwrist 17.7549
lhand -29.4509 12.4372
lfingers 7.12502
lthumb -182.787 222.399
rfemur 19.3612 -8.66555 21.8638
rtibia 6.6192
rfoot 35.5444 -24.167
rtoes 17.0396
lfemur -30.3043 -21.9001 -11.3074
ltibia 28.5083
lfoot 38.0527 -45.3411
ltoes 54.2872
324
root -5.30685 17.9724 -3.54026 -166.372 -4.91328 -174.806
lowerback -10.4226 16.7218 14.2885
upperback -15.2496 18.7779 0.234287
thorax -6.77982 6.87199 -5.32748
lowerneck -9.28778 -18.7647 -2.54478
upperneck 7.18726 -25.1053 1.39998
head 4.52093 -12.4181 -0.929564
rclavicle -1.94809e-014 -3.49861e-014
rhumerus 111.679 28.4929 -49.2612
rradius 71.6746
rwrist 8.05025
rhand -45.0493 35.8208
rfingers 7.12502
rthumb -17.8311 6.61824
lclavicle -1.94809e-014 -3.49861e-014
lhumerus 68.8319 28.2693 62.9372
lradius 84.0226
lwrist 18.1164
lhand -28.9242 12.6054
lfingers 7.12502
lthumb -182.279 222.573
rfemur 19.0803 -8.37976 22.1155
rtibia 6.96345
rfoot 34.9803 -25.106
rtoes 18.1072
lfemur -30.2337 -21.7698 -11.1389
ltibia 28.3125
lfoot 38.1362 -44.9971
ltoes 54.4739
325
root -5.309 17.9779 -3.53451 -166.375 -4.66369 -174.791
lowerback -10.3842 16.6488 14.2692
upperback -15.1772 18.688 0.359449
thorax -6.77932 6.83577 -5.2125
lowerneck -9.24092 -18.7153 -2.87823
upperneck 7.3011 -25.0438 1.65708
head 4.6422 -12.3811 -0.82417
rclavicle 9.06458e-014 6.20208e-014
rhumerus 111.416 28.5464 -49.6902
rradius 71.4221
rwrist 7.32435
rhand -44.5886 35.2245
rfingers 7.12502
rthumb -17.3877 5.98224
lclavicle 9.06458e-014 6.20208e-014
lhumerus 68.5489 28.277 62.5334
lradius 83.5062
lwrist 18.5654
lhand -27.8887 12.5031
lfingers 7.12502
lthumb -181.278 222.479
rfemur 18.8573 -8.02386 22.1735
rtibia 7.31506
rfoot 34.8025 -25.369
rtoes 17.1562
lfemur -30.0715 -21.6946 -11.1432
ltibia 28.1228
lfoot 37.8476 -44.6672
ltoes 54.5094
